<svg xmlns="http://www.w3.org/2000/svg" viewBox="0 0 512 512">
  <defs>
    <linearGradient id="g" x1="0%" y1="0%" x2="100%" y2="100%">
      <stop offset="0%" stop-color="#22c55e"/>
      <stop offset="100%" stop-color="#16a34a"/>
    </linearGradient>
  </defs>
  <rect width="512" height="512" rx="104" fill="url(#g)"/>
  <path fill="#fff" d="M256 118 110 186l146 68 146-68-146-68zm0 100-90-42 90-42 90 42-90 42z"/>
  <path fill="#e8ffe8" d="m150 212 106 50 106-50v100c0 6-3 12-9 14l-97 46-97-46c-6-2-9-8-9-14V212z"/>
  <circle cx="196" cy="256" r="10" fill="#16a34a"/>
  <circle cx="256" cy="256" r="10" fill="#16a34a"/>
  <circle cx="316" cy="256" r="10" fill="#16a34a"/>
</svg>
