<svg xmlns="http://www.w3.org/2000/svg" viewBox="0 0 800 1280">
  <defs>
    <linearGradient id="bg" x1="0%" y1="0%" x2="100%" y2="100%">
      <stop offset="0%" stop-color="#22c55e"/>
      <stop offset="100%" stop-color="#16a34a"/>
    </linearGradient>
  </defs>
  <rect width="800" height="1280" fill="url(#bg)"/>
  <circle cx="200" cy="280" r="90" fill="#fff" opacity="0.12"/>
  <circle cx="620" cy="260" r="110" fill="#fff" opacity="0.12"/>
  <circle cx="400" cy="400" r="150" fill="#fff" opacity="0.12"/>
  <g transform="translate(200 520)" fill="#fff">
    <path d="M200 40 40 114l160 74 160-74L200 40zm0 90-95-44 95-44 95 44-95 44z"/>
    <path d="m70 126 130 60 130-60v96c0 6-3 12-9 14l-121 56-121-56c-6-2-9-8-9-14v-96z" opacity="0.9"/>
  </g>
</svg>
