<svg xmlns="http://www.w3.org/2000/svg" viewBox="0 0 200 200" width="200" height="200">
  <!-- Background circle -->
  <circle cx="100" cy="100" r="95" fill="#fef9c3" stroke="#eab308" stroke-width="3"/>
  <!-- Body with white robe -->
  <ellipse cx="100" cy="150" rx="38" ry="28" fill="#f0fdf4"/>
  <path d="M 68 135 Q 60 175 70 190 L 130 190 Q 140 175 132 135" fill="#ecfdf5" stroke="#86efac" stroke-width="1"/>
  <!-- Cross on robe -->
  <rect x="96" y="152" width="8" height="20" rx="1" fill="#22c55e"/>
  <rect x="90" y="158" width="20" height="8" rx="1" fill="#22c55e"/>
  <!-- Head -->
  <circle cx="100" cy="95" r="35" fill="#e8c4a0"/>
  <!-- Ears -->
  <ellipse cx="68" cy="65" rx="15" ry="22" fill="#d4a574" transform="rotate(-15 68 65)"/>
  <ellipse cx="132" cy="65" rx="15" ry="22" fill="#d4a574" transform="rotate(15 132 65)"/>
  <ellipse cx="70" cy="65" rx="10" ry="16" fill="#f5d5b5" transform="rotate(-15 70 65)"/>
  <ellipse cx="130" cy="65" rx="10" ry="16" fill="#f5d5b5" transform="rotate(15 130 65)"/>
  <!-- Eyes - gentle -->
  <circle cx="87" cy="90" r="6" fill="#1a1a2e"/>
  <circle cx="113" cy="90" r="6" fill="#1a1a2e"/>
  <circle cx="89" cy="88" r="2.5" fill="white"/>
  <circle cx="115" cy="88" r="2.5" fill="white"/>
  <!-- Nose -->
  <ellipse cx="100" cy="102" rx="5" ry="3.5" fill="#1a1a2e"/>
  <!-- Gentle smile -->
  <path d="M 90 108 Q 100 116 110 108" fill="none" stroke="#1a1a2e" stroke-width="1.5" stroke-linecap="round"/>
  <!-- Halo -->
  <ellipse cx="100" cy="55" rx="30" ry="8" fill="none" stroke="#fbbf24" stroke-width="3" opacity="0.7"/>
  <!-- Flower crown -->
  <circle cx="80" cy="65" r="5" fill="#f472b6"/>
  <circle cx="90" cy="58" r="5" fill="#fb923c"/>
  <circle cx="100" cy="55" r="5" fill="#fbbf24"/>
  <circle cx="110" cy="58" r="5" fill="#a78bfa"/>
  <circle cx="120" cy="65" r="5" fill="#f472b6"/>
  <!-- Healing staff -->
  <rect x="145" y="60" width="5" height="120" rx="2" fill="#d4a574"/>
  <!-- Staff top - healing crystal -->
  <path d="M 135 55 L 147 35 L 159 55 Z" fill="#34d399" stroke="#10b981" stroke-width="2"/>
  <circle cx="147" cy="48" r="4" fill="#6ee7b7"/>
  <!-- Healing sparkles -->
  <circle cx="40" cy="130" r="3" fill="#34d399" opacity="0.6"/>
  <circle cx="50" cy="120" r="2" fill="#34d399" opacity="0.4"/>
  <circle cx="45" cy="140" r="2" fill="#34d399" opacity="0.5"/>
  <circle cx="155" cy="130" r="3" fill="#34d399" opacity="0.6"/>
  <circle cx="160" cy="120" r="2" fill="#34d399" opacity="0.4"/>
</svg>