<svg xmlns="http://www.w3.org/2000/svg" viewBox="0 0 200 200" width="200" height="200">
  <!-- Background circle -->
  <circle cx="100" cy="100" r="95" fill="#fee2e2" stroke="#ef4444" stroke-width="3"/>
  <!-- Body -->
  <ellipse cx="100" cy="145" rx="35" ry="25" fill="#d4a574"/>
  <!-- Head -->
  <circle cx="100" cy="95" r="35" fill="#e8c4a0"/>
  <!-- Ears -->
  <ellipse cx="68" cy="65" rx="15" ry="22" fill="#d4a574" transform="rotate(-15 68 65)"/>
  <ellipse cx="132" cy="65" rx="15" ry="22" fill="#d4a574" transform="rotate(15 132 65)"/>
  <ellipse cx="70" cy="65" rx="10" ry="16" fill="#f5d5b5" transform="rotate(-15 70 65)"/>
  <ellipse cx="130" cy="65" rx="10" ry="16" fill="#f5d5b5" transform="rotate(15 130 65)"/>
  <!-- Eyes -->
  <circle cx="87" cy="90" r="6" fill="#1a1a2e"/>
  <circle cx="113" cy="90" r="6" fill="#1a1a2e"/>
  <circle cx="89" cy="88" r="2" fill="white"/>
  <circle cx="115" cy="88" r="2" fill="white"/>
  <!-- Nose -->
  <ellipse cx="100" cy="102" rx="5" ry="3.5" fill="#1a1a2e"/>
  <!-- Mouth -->
  <path d="M 93 108 Q 100 114 107 108" fill="none" stroke="#1a1a2e" stroke-width="1.5" stroke-linecap="round"/>
  <!-- Helmet -->
  <path d="M 65 85 Q 65 50 100 45 Q 135 50 135 85" fill="#6b7280" stroke="#4b5563" stroke-width="2"/>
  <rect x="95" y="42" width="10" height="20" rx="3" fill="#f59e0b"/>
  <!-- Sword -->
  <rect x="140" y="100" width="6" height="45" rx="2" fill="#9ca3af" transform="rotate(-15 143 122)"/>
  <rect x="135" y="140" width="16" height="8" rx="2" fill="#78350f" transform="rotate(-15 143 144)"/>
  <polygon points="143,60 140,100 146,100" fill="#d1d5db" transform="rotate(-15 143 80)"/>
  <!-- Shield -->
  <ellipse cx="58" cy="135" rx="18" ry="22" fill="#dc2626" stroke="#991b1b" stroke-width="2"/>
  <path d="M 50 128 L 58 120 L 66 128" fill="#fbbf24" stroke="#f59e0b" stroke-width="1"/>
</svg>